# Made in Blockbench 5.1.4
mtllib mana_crystal.mtl

o pyramid
v 0 0.9375 0
v 0.0625 0.8125 0.0625
v 0.0625 0.8125 -0.0625
v -0.0625 0.8125 0.0625
v -0.0625 0.8125 -0.0625
vt 0.5 0.875
vt 0.5 1
vt 0.375 1
vt 0.375 0.875
vt 0.0054454307505353294 0.6479354913542682
vt 0.11955456924946467 0.5969050640482759
vt 0.11955456924946464 0.75
vt 0.0054454307505353294 0.8979354913542682
vt 0.11955456924946467 0.8469050640482759
vt 0.11955456924946464 1
vt 0.19294543075053533 0.8979354913542682
vt 0.30705456924946467 0.8469050640482759
vt 0.3070545692494646 1
vt 0.19294543075053533 0.6479354913542682
vt 0.30705456924946467 0.5969050640482759
vt 0.3070545692494646 0.75
vn 0 -1 0
vn 0.8944271909999161 0.44721359549995804 0
vn 0 0.44721359549995804 0.8944271909999161
vn 0 0.44721359549995804 -0.8944271909999161
vn -0.8944271909999161 0.44721359549995804 0
usemtl mana_crystal_top
f 3/1/1 2/2/1 4/3/1 5/4/1
f 2/5/2 3/6/2 1/7/2
f 4/8/3 2/9/3 1/10/3
f 3/11/4 5/12/4 1/13/4
f 5/14/5 4/15/5 1/16/5
o cube
v 0.0625 0.8125 0.0625
v 0.0625 0.8125 -0.0625
v 0.0625 0 0.0625
v 0.0625 0 -0.0625
v -0.0625 0.8125 -0.0625
v -0.0625 0.8125 0.0625
v -0.0625 0 -0.0625
v -0.0625 0 0.0625
vt 0.375 1
vt 0.5 1
vt 0.5 0.1875
vt 0.375 0.1875
vt 0.375 1
vt 0.5 1
vt 0.5 0.1875
vt 0.375 0.1875
vt 0.375 1
vt 0.5 1
vt 0.5 0.1875
vt 0.375 0.1875
vt 0.375 1
vt 0.5 1
vt 0.5 0.1875
vt 0.375 0.1875
vt 0.375 1
vt 0.5 1
vt 0.5 0.1875
vt 0.375 0.1875
vt 0.375 1
vt 0.5 1
vt 0.5 0.1875
vt 0.375 0.1875
vn 0 0 -1
vn 1 0 0
vn 0 0 1
vn -1 0 0
vn 0 1 0
vn 0 -1 0
usemtl mana_crystal_base
f 9/20/6 12/19/6 10/18/6 7/17/6
f 8/24/7 9/23/7 7/22/7 6/21/7
f 13/28/8 8/27/8 6/26/8 11/25/8
f 12/32/9 13/31/9 11/30/9 10/29/9
f 11/36/10 6/35/10 7/34/10 10/33/10
f 12/40/11 9/39/11 8/38/11 13/37/11